<svg xmlns="http://www.w3.org/2000/svg" width="300" zoomAndPan="magnify" viewBox="0 0 224.87999 74.999997" height="100" preserveAspectRatio="xMidYMid meet" version="1.0"><defs><g/></defs><g fill="#ff3131" fill-opacity="1"><g transform="translate(25.837773, 43.121995)"><g><path d="M 0.191406 -13.4375 L 3.933594 0 L 10.460938 0 L 14.207031 -13.4375 L 8.640625 -13.4375 L 7.199219 -5.566406 L 5.757812 -13.4375 Z M 0.191406 -13.4375 "/></g></g></g><g fill="#d8ad00" fill-opacity="1"><g transform="translate(40.244147, 43.121995)"><g><path d="M 14.207031 -13.4375 L 8.445312 -13.4375 L 6.144531 -8.0625 L 6.144531 -13.4375 L 1.152344 -13.4375 L 1.152344 0 L 6.144531 0 L 6.144531 -5.375 L 8.832031 0 L 14.589844 0 L 10.558594 -6.71875 Z M 14.207031 -13.4375 "/></g></g></g><g fill="#004aad" fill-opacity="1"><g transform="translate(54.65052, 43.121995)"><g><path d="M 7.679688 -4.511719 C 6.816406 -4.511719 6.144531 -5.183594 6.144531 -6.238281 L 6.144531 -13.4375 L 1.152344 -13.4375 L 1.152344 -6.238281 C 1.152344 -2.398438 3.839844 0.289062 7.679688 0.289062 C 11.519531 0.289062 14.207031 -2.398438 14.207031 -6.238281 L 14.207031 -13.4375 L 9.214844 -13.4375 L 9.214844 -6.238281 C 9.214844 -5.183594 8.542969 -4.511719 7.679688 -4.511719 Z M 7.679688 -4.511719 "/></g></g></g><g fill="#000000" fill-opacity="1"><g transform="translate(70.017319, 43.121995)"><g/></g></g><g fill="#000000" fill-opacity="1"><g transform="translate(73.856697, 43.121995)"><g><path d="M 0.769531 -6.71875 C 0.769531 -2.785156 3.839844 0.289062 7.871094 0.289062 C 11.519531 0.289062 13.246094 -1.824219 13.246094 -1.824219 L 10.941406 -5.472656 C 10.941406 -5.472656 9.789062 -4.414062 8.445312 -4.414062 C 7.101562 -4.414062 6.144531 -5.375 6.144531 -6.71875 C 6.144531 -8.0625 7.101562 -9.023438 8.445312 -9.023438 C 9.789062 -9.023438 10.941406 -7.96875 10.941406 -7.96875 L 13.246094 -11.613281 C 13.246094 -11.613281 11.519531 -13.726562 7.871094 -13.726562 C 3.839844 -13.726562 0.769531 -10.65625 0.769531 -6.71875 Z M 0.769531 -6.71875 "/></g></g></g><g fill="#000000" fill-opacity="1"><g transform="translate(87.486477, 43.121995)"><g><path d="M 10.367188 -6.71875 C 10.367188 -5.375 9.40625 -4.414062 8.253906 -4.414062 C 7.101562 -4.414062 6.144531 -5.375 6.144531 -6.71875 C 6.144531 -8.0625 7.101562 -9.023438 8.253906 -9.023438 C 9.40625 -9.023438 10.367188 -8.0625 10.367188 -6.71875 Z M 15.742188 -6.71875 C 15.742188 -10.65625 12.671875 -13.726562 8.253906 -13.726562 C 3.839844 -13.726562 0.769531 -10.65625 0.769531 -6.71875 C 0.769531 -2.785156 3.839844 0.289062 8.253906 0.289062 C 12.671875 0.289062 15.742188 -2.785156 15.742188 -6.71875 Z M 15.742188 -6.71875 "/></g></g></g><g fill="#000000" fill-opacity="1"><g transform="translate(103.995793, 43.121995)"><g><path d="M 9.40625 0 L 14.972656 0 L 14.972656 -13.4375 L 9.984375 -13.4375 L 9.984375 -7.488281 L 6.71875 -13.4375 L 1.152344 -13.4375 L 1.152344 0 L 6.144531 0 L 6.144531 -5.949219 Z M 9.40625 0 "/></g></g></g><g fill="#000000" fill-opacity="1"><g transform="translate(120.12117, 43.121995)"><g><path d="M 9.40625 0 L 14.972656 0 L 14.972656 -13.4375 L 9.984375 -13.4375 L 9.984375 -7.488281 L 6.71875 -13.4375 L 1.152344 -13.4375 L 1.152344 0 L 6.144531 0 L 6.144531 -5.949219 Z M 9.40625 0 "/></g></g></g><g fill="#000000" fill-opacity="1"><g transform="translate(136.246548, 43.121995)"><g><path d="M 6.144531 -4.800781 L 11.132812 -4.800781 L 11.132812 -8.640625 L 6.144531 -8.640625 L 6.144531 -9.597656 L 11.519531 -9.597656 L 11.519531 -13.4375 L 1.152344 -13.4375 L 1.152344 0 L 11.902344 0 L 11.902344 -3.839844 L 6.144531 -3.839844 Z M 6.144531 -4.800781 "/></g></g></g><g fill="#000000" fill-opacity="1"><g transform="translate(148.724511, 43.121995)"><g><path d="M 0.769531 -6.71875 C 0.769531 -2.785156 3.839844 0.289062 7.871094 0.289062 C 11.519531 0.289062 13.246094 -1.824219 13.246094 -1.824219 L 10.941406 -5.472656 C 10.941406 -5.472656 9.789062 -4.414062 8.445312 -4.414062 C 7.101562 -4.414062 6.144531 -5.375 6.144531 -6.71875 C 6.144531 -8.0625 7.101562 -9.023438 8.445312 -9.023438 C 9.789062 -9.023438 10.941406 -7.96875 10.941406 -7.96875 L 13.246094 -11.613281 C 13.246094 -11.613281 11.519531 -13.726562 7.871094 -13.726562 C 3.839844 -13.726562 0.769531 -10.65625 0.769531 -6.71875 Z M 0.769531 -6.71875 "/></g></g></g><g fill="#000000" fill-opacity="1"><g transform="translate(162.354291, 43.121995)"><g><path d="M 0.382812 -13.4375 L 0.382812 -9.023438 L 4.03125 -9.023438 L 4.03125 0 L 9.023438 0 L 9.023438 -9.023438 L 12.671875 -9.023438 L 12.671875 -13.4375 Z M 0.382812 -13.4375 "/></g></g></g><g fill="#000000" fill-opacity="1"><g transform="translate(175.408168, 43.121995)"><g><path d="M 0.574219 -4.414062 L 8.832031 -4.414062 L 8.832031 -8.0625 L 0.574219 -8.0625 Z M 0.574219 -4.414062 "/></g></g></g><g fill="#000000" fill-opacity="1"><g transform="translate(184.814632, 43.121995)"><g><path d="M 3.648438 -6.71875 L -0.191406 0 L 5.566406 0 L 7.101562 -4.03125 L 8.640625 0 L 14.398438 0 L 10.558594 -6.71875 L 14.207031 -13.4375 L 8.445312 -13.4375 L 7.101562 -9.789062 L 5.757812 -13.4375 L 0 -13.4375 Z M 3.648438 -6.71875 "/></g></g></g></svg>